<svg width="50" height="50" viewBox="0 0 50 50" fill="none" xmlns="http://www.w3.org/2000/svg">
<g clip-path="url(#clip0_765_6283)">
<path d="M4.16667 43.75C3.02083 43.75 2.04028 43.3424 1.225 42.5271C0.409722 41.7118 0.00138889 40.7306 0 39.5833V10.4167C0 9.27083 0.408333 8.29028 1.225 7.475C2.04167 6.65972 3.02222 6.25139 4.16667 6.25H45.8333C46.9792 6.25 47.9604 6.65833 48.7771 7.475C49.5938 8.29167 50.0014 9.27222 50 10.4167V39.5833C50 40.7292 49.5924 41.7104 48.7771 42.5271C47.9618 43.3438 46.9806 43.7514 45.8333 43.75H4.16667ZM33.125 39.5833H45.8333V10.4167H4.16667V39.5833H4.375C5.83333 36.9792 7.84722 34.9396 10.4167 33.4646C12.9861 31.9896 15.7639 31.2514 18.75 31.25C21.7361 31.2486 24.5139 31.9868 27.0833 33.4646C29.6528 34.9424 31.6667 36.9819 33.125 39.5833ZM18.75 29.1667C20.4861 29.1667 21.9618 28.559 23.1771 27.3438C24.3924 26.1285 25 24.6528 25 22.9167C25 21.1806 24.3924 19.7049 23.1771 18.4896C21.9618 17.2743 20.4861 16.6667 18.75 16.6667C17.0139 16.6667 15.5382 17.2743 14.3229 18.4896C13.1076 19.7049 12.5 21.1806 12.5 22.9167C12.5 24.6528 13.1076 26.1285 14.3229 27.3438C15.5382 28.559 17.0139 29.1667 18.75 29.1667ZM39.5833 37.5L43.75 33.3333L40.625 29.1667H37.1875C36.9792 28.5417 36.8056 27.8736 36.6667 27.1625C36.5278 26.4514 36.4583 25.7306 36.4583 25C36.4583 24.2694 36.5278 23.5667 36.6667 22.8917C36.8056 22.2167 36.9792 21.5306 37.1875 20.8333H40.625L43.75 16.6667L39.5833 12.5C37.7083 13.9583 36.1979 15.8076 35.0521 18.0479C33.9062 20.2882 33.3333 22.6056 33.3333 25C33.3333 27.3944 33.9062 29.7125 35.0521 31.9542C36.1979 34.1958 37.7083 36.0444 39.5833 37.5ZM9.47917 39.5833H28.0208C26.8403 38.2639 25.4424 37.2396 23.8271 36.5104C22.2118 35.7812 20.5194 35.4167 18.75 35.4167C16.9806 35.4167 15.2965 35.7812 13.6979 36.5104C12.0993 37.2396 10.6931 38.2639 9.47917 39.5833ZM18.75 25C18.1597 25 17.6653 24.8 17.2667 24.4C16.8681 24 16.6681 23.5056 16.6667 22.9167C16.6653 22.3278 16.8653 21.8333 17.2667 21.4333C17.6681 21.0333 18.1625 20.8333 18.75 20.8333C19.3375 20.8333 19.8326 21.0333 20.2354 21.4333C20.6382 21.8333 20.8375 22.3278 20.8333 22.9167C20.8292 23.5056 20.6292 24.0007 20.2333 24.4021C19.8375 24.8035 19.3431 25.0028 18.75 25Z" fill="#01255A"/>
</g>
<defs>
<clipPath id="clip0_765_6283">
<rect width="50" height="50" fill="white"/>
</clipPath>
</defs>
</svg>
